<?xml version="1.0" encoding="utf-8"?>
<!-- Generator: Adobe Illustrator 19.0.0, SVG Export Plug-In . SVG Version: 6.00 Build 0)  -->
<svg version="1.1" id="layer" xmlns="http://www.w3.org/2000/svg" xmlns:xlink="http://www.w3.org/1999/xlink" x="0px" y="0px"
	 viewBox="-153 -46 652 652" style="enable-background:new -153 -46 652 652;" xml:space="preserve">
<style type="text/css">
	.st0{fill:#18181B;}
	.st1{fill:#00886F;}
</style>
<path class="st0" d="M120.9,301.9c-4.4,0.3-8.4-2.2-10.3-6.1c-2.2-5.1-3.3-10.5-3-16.1c-0.2-5.5,0.8-11,3.2-16
	c1.9-3.9,5.9-6.3,10.3-6c2.6-0.2,5.2,0.8,7,2.6c1.7,2,2.9,4.4,3.4,7l21.3-0.1c-0.7-8.4-4.9-16.1-11.5-21.3c-5.1-4-12-6-20.3-6
	c-11,0-19.8,3.6-26.1,10.8c-6.3,7.2-9.5,17.1-9.5,29.4c0,12.3,3.1,21.9,9.1,28.8c6,6.9,14.8,10.4,26.1,10.4c9.2,0,16.5-2.3,21.9-6.9
	c5.4-4.6,8.7-11,10.4-19.5h-20.8c-0.6,2.4-1.9,4.7-3.7,6.5C126.1,301.1,123.5,302,120.9,301.9z M282.8,315.3l-2.9-16
	c-1.7,0.5-3.5,0.9-5.2,1.2c-2,0.3-4.1,0.5-6.1,0.5c-6.3,0-9.3-3.4-9.3-10v-31.5h21.8v-17.1h-21.8v-18h-21.9v65.9
	c-0.1,5,0.6,10.1,2.1,14.9c1.2,4.1,3.9,7.6,7.4,9.9c3.6,2.4,8.9,3.6,15.6,3.6c3.7,0,7.3-0.3,10.9-0.9
	C276.5,317.2,279.6,316.4,282.8,315.3z M292.9,256.8v60.4h22v-74.7h-7.6C299.4,242.4,293,248.8,292.9,256.8
	C292.9,256.8,292.9,256.8,292.9,256.8z M377.6,242.5l-15.7,54.1l-15.3-54.1h-23.6l26.9,74.8h23.6l26.9-74.8H377.6z M176.5,242.3
	h-22.9l29.7,67.9l0,0c0,0-1.3,4.2-1.9,6c-0.3,1.2-1,2.2-1.9,2.9l-0.5,0.5c-1.8,1.5-4.1,2.2-6.5,2.1c-1.2,0-2.4-0.1-3.6-0.3
	c-1.5-0.2-3-0.6-4.5-1L161,336c4.8,1.7,9.9,2.6,15.1,2.5c4.1,0.2,8.1-0.8,11.7-2.7c3.2-2,5.8-4.8,7.7-8.1c4-6.7,32.5-80.7,34.4-85.4
	h-22.2l-14.7,46.1L176.5,242.3z M452,249.4l-0.3-0.4c-2.2-3.2-5.3-5.6-8.9-7c-2.8-1.3-5.9-1.9-9-1.9h-1.6
	c-8.3,0.6-16.1,4.4-21.7,10.6c-6.3,7.2-9.5,17.1-9.5,29.4c0,12.3,3.1,21.9,9.1,28.8c2.9,3.3,6.5,6,10.6,7.6c3.1,1.4,6.4,2.2,9.8,2.4
	c2.1,0,5.1-0.4,5.1-0.4c2.5-0.4,4.9-1.2,7.2-2.4c3.4-1.8,6.4-4.3,8.8-7.5l0.3-0.4v8.9H474v-74.7h-22V249.4z M453.2,281.6
	c0,3-0.3,6.1-1,9c-0.7,2.7-2,5.2-3.8,7.2c-1.2,1.4-2.7,2.6-4.4,3.4c-1.9,0.8-3.9,1.2-6,1.2c-4.1,0-8-1.9-10.6-5.1
	c-2.9-3.4-4.3-9.1-4.3-17.1c0-7.9,1.4-13.4,4.2-17c2.6-3.5,6.7-5.5,11-5.4c3.7-0.1,7.3,1.4,9.8,4.2c1.7,2,2.9,4.3,3.7,6.8
	c1,3.4,1.4,6.9,1.4,10.4L453.2,281.6z M304,211.1c-7,0-12.7,5.7-12.7,12.6c0,7,5.7,12.7,12.6,12.7c7,0,12.7-5.7,12.7-12.6
	c0,0,0,0,0,0C316.6,216.8,311,211.1,304,211.1z"/>
<path class="st1" d="M-126,279.4c0,46.2,37.4,83.6,83.6,83.6s83.6-37.4,83.6-83.6c0-41.3-30.2-76.4-71-82.6c0,0,0,109.8,0,110.2
	c0,17.4-13.1,33.7-30.5,33.7S-92,328-92,312.3c-0.2-8.5,3.1-16.6,9.1-22.6c8.2-8.3,24.7-16.5,33.5-28.1c5.6-7.4,7.2-12.2,7.2-20.1
	c0.2-17.4-13.7-31.6-31-31.9c-6.7,0.1-13.3,1.9-19.1,5.1c-9.2,5.3-16.8,12.9-22,22.2C-122.1,249.9-126,264.5-126,279.4z"/>
</svg>
